HIERARCHY
ROOT Pelvis
{
	OFFSET -0.217368 -24.078917 2.858379
	CHANNELS 6 Xposition Yposition Zposition Zrotation Yrotation Xrotation 
	JOINT Left_hip
	{
		OFFSET 5.858135 -8.228005 -1.766408
		CHANNELS 3 Zrotation Yrotation Xrotation
		JOINT Left_knee
		{
			OFFSET 4.345143 -38.646942 0.803700
			CHANNELS 3 Zrotation Yrotation Xrotation
			JOINT Left_ankle
			{
				OFFSET -1.479033 -42.687447 -3.742800
				CHANNELS 3 Zrotation Yrotation Xrotation
				JOINT Left_foot
				{
					OFFSET 4.105436 -6.028605 12.204244
					CHANNELS 3 Zrotation Yrotation Xrotation
					End Site
					{
						OFFSET 0.000000 0.000000 0.000000
					}
				}
			}
		}
	}
	JOINT Right_hip
	{
		OFFSET -6.030973 -9.051328 -1.354253
		CHANNELS 3 Zrotation Yrotation Xrotation
		JOINT Right_knee
		{
			OFFSET -4.325663 -38.368790 -0.484304
			CHANNELS 3 Zrotation Yrotation Xrotation
			JOINT Right_ankle
			{
				OFFSET 1.905555 -42.004566 -3.456167
				CHANNELS 3 Zrotation Yrotation Xrotation
				JOINT Right_foot
				{
					OFFSET -3.483987 -6.210554 13.032330
					CHANNELS 3 Zrotation Yrotation Xrotation
					End Site
					{
						OFFSET 0.000000 0.000000 0.000000
					}
				}
			}
		}
	}
	JOINT Spine1
	{
		OFFSET 0.443945 12.440353 -3.838522
		CHANNELS 3 Zrotation Yrotation Xrotation
		JOINT Spine2
		{
			OFFSET 0.448844 13.795640 2.682033
			CHANNELS 3 Zrotation Yrotation Xrotation
			JOINT Spine3
			{
				OFFSET -0.226460 5.603239 0.285504
				CHANNELS 3 Zrotation Yrotation Xrotation
				JOINT Neck
				{
					OFFSET -1.339018 21.163553 -3.346758
					CHANNELS 3 Zrotation Yrotation Xrotation
					JOINT Head
					{
						OFFSET 1.011321 8.893734 5.040987
						CHANNELS 3 Zrotation Yrotation Xrotation
						End Site
						{
							OFFSET 0.000000 0.000000 0.000000
						}
					}
				}
				JOINT Left_collar
				{
					OFFSET 7.170247 11.399971 -1.889817
					CHANNELS 3 Zrotation Yrotation Xrotation
					JOINT Left_shoulder
					{
						OFFSET 12.292140 4.520507 -1.904600
						CHANNELS 3 Zrotation Yrotation Xrotation
						JOINT Left_elbow
						{
							OFFSET 25.533188 -1.564902 -2.294648
							CHANNELS 3 Zrotation Yrotation Xrotation
							JOINT Left_wrist
							{
								OFFSET 26.570929 1.269810 -0.737473
								CHANNELS 3 Zrotation Yrotation Xrotation
								JOINT Left_palm
								{
									OFFSET 8.669054 -1.063602 -1.559429
									CHANNELS 3 Zrotation Yrotation Xrotation
									End Site
									{
										OFFSET 0.000000 0.000000 0.000000
									}
								}
							}
						}
					}
				}
				JOINT Right_collar
				{
					OFFSET -8.295364 11.247234 -2.370738
					CHANNELS 3 Zrotation Yrotation Xrotation
					JOINT Right_shoulder
					{
						OFFSET -11.322830 4.685326 -0.847207
						CHANNELS 3 Zrotation Yrotation Xrotation
						JOINT Right_elbow
						{
							OFFSET -26.012751 -1.436928 -3.126872
							CHANNELS 3 Zrotation Yrotation Xrotation
							JOINT Right_wrist
							{
								OFFSET -26.910841 0.679372 -0.602677
								CHANNELS 3 Zrotation Yrotation Xrotation
								JOINT Right_palm
								{
									OFFSET -8.875370 -0.865157 -1.010708
									CHANNELS 3 Zrotation Yrotation Xrotation
									End Site
									{
										OFFSET 0.000000 0.000000 0.000000
									}
								}
							}
						}
					}
				}
			}
		}
	}
}
MOTION
Frames: 5
Frame Time: 0.016667
0.360972 72.589584 -6.370754 -2.448889 -0.680981 12.416360 5.332468 -0.709305 -14.403288 1.405887 -0.411078 5.473358 -1.543953 0.794261 8.653711 0.000000 0.000000 0.000000 2.993087 1.858413 -15.192933 -3.864946 0.947260 7.199983 3.769743 2.840934 10.974021 0.000000 0.000000 0.000000 4.661359 0.471356 -6.245068 0.185515 -0.011889 -2.570403 -10.290258 18.144659 -5.042894 15.983235 -11.405584 -4.616500 0.000000 0.000000 0.000000 -13.846864 1.616193 -2.184514 -34.401025 6.591971 -5.356804 -104.204091 -83.094250 101.612815 0.000000 0.000000 0.000000 0.000000 0.000000 0.000000 13.506528 5.252283 1.173195 8.517389 54.789376 0.613565 -79.135510 59.090522 -46.288965 0.000000 0.000000 0.000000 0.000000 0.000000 0.000000 
0.296560 72.582024 -6.502395 -2.844497 -1.589774 12.673372 5.772770 -0.677375 -14.850309 0.995526 -0.388086 6.439165 -0.594460 2.646481 9.100037 0.000000 0.000000 0.000000 3.191103 1.952358 -15.746055 -3.603382 0.942322 7.745826 4.370842 4.022969 11.037861 0.000000 0.000000 0.000000 5.079427 0.514746 -6.524455 -0.078824 0.110178 -2.658245 -10.062889 17.512476 -5.874622 16.248769 -11.608856 -4.601644 0.000000 0.000000 0.000000 -15.080966 2.579932 -2.807791 -34.582832 9.256218 -6.058494 -80.409456 -83.272739 77.842576 0.000000 0.000000 0.000000 0.000000 0.000000 0.000000 13.331858 4.660447 0.898057 13.210337 56.127834 2.863099 -90.211807 60.473185 -56.349371 0.000000 0.000000 0.000000 0.000000 0.000000 0.000000 
0.302410 72.513809 -6.735433 -2.807586 -2.262910 12.373000 5.892373 -0.652860 -14.593454 0.625453 -0.352517 7.091265 0.157028 3.990775 9.191467 0.000000 0.000000 0.000000 3.140434 1.934334 -15.652506 -3.693108 1.009709 8.444945 4.487788 4.492233 10.614142 0.000000 0.000000 0.000000 5.441643 0.530477 -6.500774 -0.083089 0.097311 -2.108941 -9.863049 16.493753 -6.495130 15.526794 -11.360930 -3.579767 0.000000 0.000000 0.000000 -15.990594 0.880905 -2.089716 -35.914822 7.329223 -5.813515 -64.083845 -83.370719 62.155927 0.000000 0.000000 0.000000 0.000000 0.000000 0.000000 13.506347 5.047888 1.074847 15.591898 55.542860 3.919412 -97.137749 60.355263 -62.183977 0.000000 0.000000 0.000000 0.000000 0.000000 0.000000 
0.322705 72.429108 -7.035211 -2.733089 -4.347412 13.004251 6.063867 -0.655517 -15.175432 -0.101568 -0.249634 7.767480 1.044256 5.453132 8.949810 0.000000 0.000000 0.000000 2.776037 2.028684 -16.733759 -3.801718 1.072687 9.021177 4.763240 4.873496 10.939623 0.000000 0.000000 0.000000 6.108726 0.634402 -7.254316 -0.407812 0.256548 -2.561047 -9.084826 16.005468 -7.133728 14.093791 -10.179469 -3.920507 0.000000 0.000000 0.000000 -16.931138 -1.012672 -1.240836 -35.530431 -1.119422 -3.532501 -52.997500 -84.358276 52.494280 0.000000 0.000000 0.000000 0.000000 0.000000 0.000000 13.649351 5.370985 1.223629 20.802911 56.940738 6.606268 -102.759976 63.252410 -70.530227 0.000000 0.000000 0.000000 0.000000 0.000000 0.000000 
0.397588 72.337379 -7.343582 -2.620912 -6.106859 13.174030 6.033614 -0.649942 -14.938826 -0.673349 -0.135924 7.373648 1.611719 6.459356 9.032912 0.000000 0.000000 0.000000 2.683377 2.067320 -17.133753 -4.485379 1.209919 9.132340 5.083859 5.493205 10.998050 0.000000 0.000000 0.000000 6.895267 0.675745 -7.229500 -0.174032 0.158517 -2.863559 -8.044466 13.850921 -7.536766 12.217641 -8.739770 -4.031167 0.000000 0.000000 0.000000 -17.286781 -4.672873 0.607514 -33.229133 -11.455362 -0.756152 9.730961 -82.178387 -4.852766 0.000000 0.000000 0.000000 0.000000 0.000000 0.000000 13.577384 6.945280 1.987709 23.656158 57.614562 8.144280 -111.064007 67.190151 -83.263046 0.000000 0.000000 0.000000 0.000000 0.000000 0.000000 
